<?xml version="1.0" encoding="UTF-8"?><svg id="Layer_2" xmlns="http://www.w3.org/2000/svg" viewBox="0 0 1981.8 481.39"><defs><style>.cls-1{fill:#010101;}</style></defs><g id="Layer_1-2"><polygon points="884.6 66.75 988.42 219.59 1105.68 66.75 1190.29 66.75 1190.29 410.65 1092.03 410.65 1097.44 219.62 1013.28 329.14 969.29 328.67 890.06 225.05 890.06 410.65 797.26 410.65 797.26 66.75 884.6 66.75"/><path d="M1381.35,66.75v199.24c0,44.71,53.16,68.78,93.11,60.33,18.9-4,54.27-30.58,54.27-49.42V66.75h98.26v210.16c0,12.99-19.82,57.77-28.19,70.07-63.48,93.34-232.86,88.78-292.99-5.45-5.46-8.55-22.72-51.89-22.72-59.16V66.75h98.26Z"/><polygon points="1981.8 66.75 1981.8 148.63 1905.38 148.63 1905.38 328.77 1981.8 328.77 1981.8 410.65 1725.25 410.65 1725.25 328.77 1807.13 328.77 1807.13 148.63 1725.25 148.63 1725.25 66.75 1981.8 66.75"/><path class="cls-1" d="M0,.03v262.54l74.2,43.79v-175.06l148.39,87.55,148.39-87.55v87.55l-148.39,87.5v87.53l148.39,87.5,222.59-131.27v-175.06l-74.2,43.79v87.5l-148.39,87.53-74.2-43.76,148.39-87.55V.03l-222.59,131.27L0,.03ZM593.56.03l-74.2,43.71v87.55l74.2-43.76V0v.03Z"/></g></svg>