<?xml version="1.0" encoding="utf-8"?>
<!-- Generator: Adobe Adobe Illustrator 24.2.0, SVG Export Plug-In . SVG Version: 6.00 Build 0)  -->
<svg version="1.1" id="Layer_1" xmlns="http://www.w3.org/2000/svg" xmlns:xlink="http://www.w3.org/1999/xlink" x="0px" y="0px"
	 width="218px" height="48px" viewBox="0 0 218 48" style="enable-background:new 0 0 218 48;" xml:space="preserve">
<style type="text/css">
	.st0{display:none;}
	.st1{display:none;fill:none;stroke:#A6A6A6;stroke-width:0.15;stroke-miterlimit:10;}
	.st2{fill:#F7AE5E;}
	.st3{fill:#FFFFFF;}
</style>
<g>
	<g>
		<path d="M17.26,33.92v-0.92h2.75c0.96,0,1.69-0.25,2.19-0.76c0.5-0.51,0.74-1.24,0.74-2.19V19.98h-5.09v-0.92h6.11v10.99
			c0,1.21-0.35,2.15-1.04,2.84c-0.69,0.69-1.66,1.03-2.91,1.03H17.26z M23.35,16.93c-0.35,0-0.64-0.1-0.85-0.31
			c-0.22-0.2-0.33-0.48-0.33-0.81c0-0.34,0.11-0.61,0.33-0.81c0.22-0.2,0.5-0.31,0.85-0.31s0.64,0.1,0.85,0.31
			c0.22,0.2,0.33,0.48,0.33,0.81c0,0.34-0.11,0.61-0.33,0.81C23.98,16.83,23.7,16.93,23.35,16.93z"/>
		<path d="M33.67,30.46c-0.83,0-1.54-0.17-2.14-0.5c-0.6-0.33-1.06-0.8-1.37-1.41c-0.32-0.61-0.48-1.33-0.48-2.16v-3.46
			c0-0.83,0.16-1.54,0.48-2.15c0.32-0.6,0.78-1.07,1.37-1.41c0.6-0.34,1.31-0.51,2.14-0.51c0.83,0,1.53,0.17,2.12,0.51
			c0.58,0.34,1.04,0.81,1.35,1.41c0.32,0.6,0.48,1.32,0.48,2.15v1.93h-6.92v1.53c0,0.98,0.26,1.75,0.77,2.32s1.25,0.85,2.2,0.85
			c0.76,0,1.39-0.18,1.88-0.55c0.5-0.37,0.84-0.87,1.03-1.51h1.02c-0.2,0.91-0.65,1.63-1.33,2.16
			C35.57,30.2,34.71,30.46,33.67,30.46z M36.6,24.18v-1.24c0-0.98-0.25-1.75-0.76-2.32s-1.23-0.85-2.17-0.85
			c-0.95,0-1.68,0.28-2.2,0.84c-0.52,0.56-0.77,1.34-0.77,2.33v1.06h6.13L36.6,24.18z"/>
		<path d="M41.99,30.26V19.07h1.02V21h0.47l-0.61,1.04c0-0.96,0.29-1.73,0.88-2.31c0.59-0.58,1.38-0.86,2.37-0.86
			c1.1,0,1.98,0.35,2.65,1.06s1,1.66,1,2.87v7.47h-1.02v-7.33c0-1-0.25-1.79-0.76-2.35s-1.2-0.84-2.07-0.84
			c-0.9,0-1.6,0.28-2.13,0.85c-0.52,0.57-0.78,1.35-0.78,2.34v7.33H41.99z"/>
		<path d="M54.2,30.26V19.07h1.02V21h0.47l-0.61,1.04c0-0.96,0.29-1.73,0.88-2.31c0.59-0.58,1.38-0.86,2.37-0.86
			c1.1,0,1.98,0.35,2.65,1.06s1,1.66,1,2.87v7.47h-1.02v-7.33c0-1-0.25-1.79-0.76-2.35s-1.2-0.84-2.07-0.84
			c-0.9,0-1.6,0.28-2.13,0.85c-0.52,0.57-0.78,1.35-0.78,2.34v7.33H54.2z"/>
		<path d="M66.11,30.26v-0.92h4.09v-9.36h-3.58v-0.92h4.6v10.28h3.85v0.92H66.11z M70.58,16.93c-0.35,0-0.64-0.1-0.86-0.31
			c-0.22-0.2-0.33-0.48-0.33-0.81c0-0.34,0.11-0.61,0.33-0.81c0.22-0.2,0.5-0.31,0.86-0.31c0.35,0,0.64,0.1,0.85,0.31
			s0.33,0.48,0.33,0.81c0,0.34-0.11,0.61-0.33,0.81C71.22,16.83,70.94,16.93,70.58,16.93z"/>
		<path d="M81.27,30.26v-9.14h-3.46v-0.92h3.46v-2.26c0-0.8,0.23-1.42,0.7-1.87c0.47-0.45,1.12-0.67,1.94-0.67h3.11v0.92h-3.11
			c-0.52,0-0.92,0.14-1.2,0.43c-0.28,0.28-0.43,0.69-0.43,1.2v2.26h4.74v0.92h-4.74v9.14H81.27z"/>
		<path d="M94.72,30.46c-0.83,0-1.54-0.17-2.14-0.5c-0.6-0.33-1.06-0.8-1.37-1.41c-0.32-0.61-0.48-1.33-0.48-2.16v-3.46
			c0-0.83,0.16-1.54,0.48-2.15c0.32-0.6,0.78-1.07,1.37-1.41c0.6-0.34,1.31-0.51,2.14-0.51c0.83,0,1.53,0.17,2.12,0.51
			c0.58,0.34,1.04,0.81,1.35,1.41c0.32,0.6,0.48,1.32,0.48,2.15v1.93h-6.92v1.53c0,0.98,0.26,1.75,0.77,2.32s1.25,0.85,2.2,0.85
			c0.76,0,1.39-0.18,1.88-0.55c0.5-0.37,0.84-0.87,1.03-1.51h1.02c-0.2,0.91-0.65,1.63-1.33,2.16
			C96.63,30.2,95.77,30.46,94.72,30.46z M97.65,24.18v-1.24c0-0.98-0.25-1.75-0.76-2.32s-1.23-0.85-2.17-0.85
			c-0.95,0-1.68,0.28-2.2,0.84c-0.52,0.56-0.77,1.34-0.77,2.33v1.06h6.13L97.65,24.18z"/>
		<path d="M103.39,30.26V19.07h1.02V21h0.24l-0.47,1.18c0.01-0.99,0.32-1.79,0.92-2.4c0.6-0.61,1.39-0.92,2.38-0.92
			c1.19,0,2.14,0.37,2.83,1.1c0.69,0.73,1.04,1.72,1.04,2.97v0.61h-1.12v-0.61c0-1-0.25-1.79-0.76-2.35s-1.22-0.84-2.15-0.84
			c-0.91,0-1.62,0.28-2.14,0.84s-0.77,1.35-0.77,2.35v7.33H103.39z"/>
		<path d="M131.98,30.46c-0.92,0-1.66-0.25-2.22-0.74c-0.56-0.5-0.83-1.17-0.83-2.02l0.37,0.43h-0.37v2.14h-1.83V15.4h1.83v3.26
			l-0.04,2.54h0.41l-0.37,0.43c0-0.84,0.28-1.51,0.84-2.01c0.56-0.5,1.3-0.75,2.21-0.75c1.13,0,2.03,0.37,2.71,1.12
			c0.68,0.75,1.02,1.76,1.02,3.05v3.28c0,1.28-0.34,2.29-1.02,3.03C134.01,30.09,133.11,30.46,131.98,30.46z M131.37,28.88
			c0.77,0,1.38-0.23,1.83-0.69c0.45-0.46,0.67-1.13,0.67-1.99v-3.05c0-0.87-0.22-1.53-0.67-1.99c-0.45-0.46-1.06-0.69-1.83-0.69
			c-0.75,0-1.34,0.24-1.78,0.71c-0.44,0.48-0.66,1.13-0.66,1.97v3.05c0,0.84,0.22,1.5,0.66,1.97
			C130.03,28.64,130.63,28.88,131.37,28.88z"/>
		<path d="M143.54,30.42c-0.9,0-1.67-0.17-2.32-0.51c-0.65-0.34-1.16-0.83-1.52-1.48c-0.36-0.64-0.54-1.41-0.54-2.29v-2.97
			c0-0.9,0.18-1.66,0.54-2.3c0.36-0.64,0.86-1.13,1.52-1.47c0.65-0.34,1.42-0.51,2.32-0.51s1.67,0.17,2.32,0.51
			c0.65,0.34,1.16,0.83,1.52,1.47c0.36,0.64,0.54,1.4,0.54,2.28v2.99c0,0.88-0.18,1.65-0.54,2.29c-0.36,0.64-0.87,1.14-1.52,1.48
			C145.21,30.25,144.44,30.42,143.54,30.42z M143.54,28.8c0.8,0,1.42-0.22,1.87-0.67c0.45-0.45,0.67-1.11,0.67-1.97v-2.97
			c0-0.87-0.22-1.53-0.67-1.97c-0.45-0.45-1.07-0.67-1.87-0.67c-0.79,0-1.41,0.22-1.86,0.67c-0.45,0.45-0.68,1.11-0.68,1.97v2.97
			c0,0.87,0.23,1.53,0.68,1.97C142.14,28.57,142.76,28.8,143.54,28.8z"/>
		<path d="M152.15,30.26l-1.79-11.19h1.63l1.12,7.94c0.04,0.3,0.08,0.62,0.13,0.97c0.05,0.35,0.08,0.63,0.11,0.86
			c0.03-0.23,0.07-0.52,0.13-0.86c0.06-0.35,0.11-0.67,0.15-0.97l1.24-7.94h1.75l1.24,7.94c0.04,0.3,0.09,0.62,0.15,0.97
			c0.06,0.35,0.1,0.63,0.13,0.86c0.03-0.23,0.07-0.52,0.13-0.86c0.06-0.35,0.11-0.67,0.15-0.97l1.16-7.94h1.55l-1.87,11.19h-2.02
			l-1.2-7.73c-0.05-0.38-0.12-0.76-0.18-1.14c-0.07-0.38-0.12-0.68-0.14-0.9c-0.03,0.22-0.07,0.52-0.12,0.9
			c-0.05,0.38-0.12,0.76-0.18,1.14l-1.26,7.73H152.15z"/>
		<path d="M167.62,30.42c-0.76,0-1.42-0.12-1.98-0.36c-0.56-0.24-1.01-0.57-1.34-1.01c-0.33-0.43-0.53-0.95-0.6-1.55h1.83
			c0.08,0.39,0.3,0.71,0.66,0.94c0.36,0.23,0.84,0.35,1.43,0.35h0.85c0.72,0,1.25-0.15,1.61-0.44c0.35-0.29,0.53-0.68,0.53-1.17
			c0-0.47-0.16-0.85-0.48-1.13c-0.32-0.28-0.79-0.46-1.42-0.56l-1.51-0.24c-1.1-0.19-1.92-0.53-2.45-1.03
			c-0.54-0.5-0.8-1.22-0.8-2.17c0-1,0.32-1.78,0.96-2.33s1.59-0.82,2.87-0.82h0.77c1.07,0,1.93,0.25,2.58,0.75s1.04,1.18,1.18,2.04
			h-1.83c-0.08-0.35-0.28-0.63-0.61-0.84c-0.33-0.21-0.77-0.32-1.32-0.32h-0.77c-0.69,0-1.2,0.13-1.52,0.39
			c-0.32,0.26-0.48,0.64-0.48,1.16c0,0.46,0.14,0.8,0.41,1.02c0.27,0.22,0.7,0.37,1.28,0.47l1.51,0.24
			c1.21,0.19,2.09,0.54,2.64,1.06s0.82,1.26,0.82,2.24c0,1.03-0.33,1.84-0.99,2.43c-0.66,0.59-1.65,0.89-2.98,0.89H167.62z"/>
		<path d="M180.18,30.46c-0.88,0-1.65-0.18-2.31-0.53c-0.66-0.35-1.17-0.85-1.53-1.5c-0.36-0.64-0.54-1.39-0.54-2.25v-3.05
			c0-0.87,0.18-1.62,0.54-2.26c0.36-0.64,0.87-1.13,1.53-1.49c0.66-0.35,1.43-0.53,2.31-0.53s1.65,0.18,2.31,0.53
			c0.66,0.35,1.17,0.85,1.53,1.49c0.36,0.64,0.54,1.39,0.54,2.26v1.97h-6.96v1.08c0,0.88,0.22,1.56,0.67,2.02
			c0.45,0.47,1.09,0.7,1.91,0.7c0.71,0,1.28-0.13,1.71-0.38c0.43-0.25,0.7-0.63,0.79-1.13h1.83c-0.12,0.94-0.58,1.68-1.37,2.23
			C182.35,30.19,181.36,30.46,180.18,30.46z M182.76,23.89v-0.75c0-0.88-0.22-1.56-0.66-2.04c-0.44-0.48-1.08-0.71-1.92-0.71
			c-0.83,0-1.46,0.24-1.91,0.71c-0.45,0.47-0.67,1.15-0.67,2.04v0.59h5.31L182.76,23.89z"/>
		<path d="M188.54,30.26V19.07h1.79v2.14h0.43l-0.59,1.32c0-1.21,0.26-2.12,0.78-2.74c0.52-0.62,1.3-0.93,2.33-0.93
			c1.18,0,2.12,0.37,2.82,1.11c0.7,0.74,1.05,1.74,1.05,3v0.67h-1.83v-0.51c0-0.88-0.21-1.56-0.64-2.03
			c-0.43-0.47-1.04-0.7-1.82-0.7c-0.77,0-1.38,0.24-1.82,0.71c-0.44,0.48-0.66,1.15-0.66,2.02v7.12H188.54z"/>
	</g>
	<g>
		<path class="st2" d="M14.1,40.92c-1.07,0-2-0.21-2.77-0.64c-0.77-0.42-1.36-1.04-1.76-1.86c-0.4-0.82-0.57-1.79-0.52-2.92
			l0.27-5.35c0.05-1.15-0.09-1.98-0.44-2.5c-0.35-0.51-1.11-0.77-2.29-0.77h-3v-2.61h3c1.18,0,1.95-0.26,2.29-0.77
			c0.35-0.51,0.49-1.34,0.44-2.5l-0.27-5.35c-0.05-1.15,0.12-2.13,0.52-2.94c0.4-0.8,0.99-1.42,1.76-1.84
			c0.77-0.42,1.7-0.64,2.77-0.64h1.23v2.61H14.1c-0.86,0-1.51,0.23-1.97,0.7c-0.46,0.47-0.67,1.17-0.63,2.1l0.27,5.35
			c0.07,1.41-0.21,2.54-0.85,3.38c-0.64,0.84-1.54,1.26-2.7,1.26v-0.16c1.15,0,2.04,0.42,2.69,1.27c0.65,0.85,0.93,1.98,0.86,3.39
			l-0.27,5.35c-0.04,0.94,0.17,1.64,0.63,2.1c0.46,0.47,1.11,0.7,1.97,0.7h1.23v2.61H14.1z"/>
	</g>
	<g>
		<path class="st2" d="M197.58,40.92v-2.61h1.23c0.86,0,1.51-0.23,1.97-0.7c0.45-0.47,0.66-1.17,0.63-2.1l-0.27-5.35
			c-0.07-1.41,0.21-2.54,0.86-3.39c0.65-0.85,1.54-1.27,2.69-1.27v0.16c-1.17,0-2.07-0.42-2.7-1.26c-0.64-0.84-0.92-1.96-0.85-3.38
			l0.27-5.35c0.04-0.93-0.17-1.64-0.63-2.1c-0.46-0.47-1.11-0.7-1.97-0.7h-1.23v-2.61h1.23c1.07,0,2,0.21,2.77,0.64
			c0.77,0.42,1.36,1.04,1.76,1.84c0.4,0.8,0.57,1.78,0.52,2.94l-0.27,5.35c-0.05,1.15,0.09,1.98,0.44,2.5
			c0.35,0.51,1.11,0.77,2.29,0.77h3v2.61h-3c-1.17,0-1.93,0.26-2.28,0.77c-0.36,0.51-0.51,1.34-0.45,2.5l0.27,5.35
			c0.05,1.13-0.12,2.1-0.52,2.92c-0.4,0.82-0.99,1.44-1.76,1.86c-0.77,0.42-1.7,0.64-2.77,0.64H197.58z"/>
	</g>
</g>
</svg>
