<?xml version="1.0" encoding="UTF-8"?><svg id="Layer_2" xmlns="http://www.w3.org/2000/svg" viewBox="0 0 535.68 77.76"><defs><style>.cls-1{fill:#000;}.cls-1,.cls-2{stroke-width:0px;}.cls-2{fill:#fcc842;}</style></defs><g id="Layer_1-2"><path class="cls-1" d="M45.77,22.96v31.83c0,1.61-.24,3-.71,4.17-.48,1.17-1.26,2.07-2.36,2.69s-2.58.93-4.44.93h-8.91v-2.08h8.96c1.54,0,2.74-.39,3.62-1.18.88-.79,1.32-2.19,1.32-4.2V22.96h2.52ZM35.02,25.05v-2.08h9.49v2.08h-9.49ZM42.87,16.71v-3.95h3.29v3.95h-3.29Z"/><path class="cls-1" d="M71.57,53.48c-2.96,0-5.52-.63-7.68-1.89-2.16-1.26-3.81-3.06-4.97-5.41-1.15-2.34-1.73-5.12-1.73-8.34s.58-5.88,1.73-8.2,2.81-4.12,4.97-5.41c2.16-1.28,4.72-1.92,7.68-1.92,4.28,0,7.6,1.16,9.96,3.48,2.36,2.32,3.45,5.55,3.27,9.69h-25.57v-2.36l22.94.11c-.15-2.71-1.16-4.82-3.05-6.34-1.88-1.52-4.4-2.28-7.55-2.28-3.66,0-6.54,1.18-8.64,3.54-2.1,2.36-3.16,5.57-3.16,9.63,0,2.74.48,5.12,1.43,7.13.95,2.01,2.31,3.56,4.06,4.64s3.86,1.62,6.31,1.62c3,0,5.51-.71,7.52-2.14,2.01-1.43,3.26-3.37,3.73-5.82h2.52c-.62,3.18-2.16,5.69-4.61,7.52-2.45,1.83-5.51,2.74-9.16,2.74Z"/><path class="cls-1" d="M92.2,52.82v-29.85h2.25l.27,8.18v21.68h-2.52ZM114.92,52.82v-19.21c0-2.71-.8-4.88-2.41-6.53-1.61-1.65-3.71-2.47-6.31-2.47-2.93,0-5.51,1.12-7.74,3.38-2.23,2.25-3.66,5.59-4.28,10.01l-.6-5.16c.91-3.29,2.52-5.87,4.8-7.74,2.29-1.87,4.93-2.8,7.93-2.8,2.23,0,4.18.48,5.84,1.43,1.66.95,2.96,2.28,3.9,3.98.93,1.7,1.4,3.69,1.4,5.95v19.15h-2.52Z"/><path class="cls-1" d="M125.56,52.82v-29.85h2.25l.27,8.18v21.68h-2.52ZM148.28,52.82v-19.21c0-2.71-.8-4.88-2.41-6.53-1.61-1.65-3.71-2.47-6.31-2.47-2.93,0-5.51,1.12-7.74,3.38-2.23,2.25-3.66,5.59-4.28,10.01l-.6-5.16c.91-3.29,2.52-5.87,4.8-7.74,2.29-1.87,4.93-2.8,7.93-2.8,2.23,0,4.18.48,5.84,1.43,1.66.95,2.96,2.28,3.9,3.98.93,1.7,1.4,3.69,1.4,5.95v19.15h-2.52Z"/><path class="cls-1" d="M158.32,52.82v-2.08h25.68v2.08h-25.68ZM162.44,25.05v-2.08h9.49v2.08h-9.49ZM170.23,16.71v-3.95h3.29v3.95h-3.29ZM170.67,52.82v-29.85h2.52v29.85h-2.52Z"/><path class="cls-1" d="M191.85,52.82v-2.08h26.01v2.08h-26.01ZM194.1,25.05v-2.08h22.28v2.08h-22.28ZM202.33,52.82V19.18c0-1.54.22-2.89.66-4.06s1.21-2.09,2.3-2.74,2.62-.99,4.55-.99h8.56v2.09h-8.62c-.99,0-1.86.16-2.61.49-.75.33-1.33.88-1.73,1.65-.4.77-.6,1.85-.6,3.24v33.97h-2.52Z"/><path class="cls-1" d="M238.39,53.48c-2.96,0-5.52-.63-7.68-1.89-2.16-1.26-3.81-3.06-4.97-5.41-1.15-2.34-1.73-5.12-1.73-8.34s.58-5.88,1.73-8.2,2.81-4.12,4.97-5.41c2.16-1.28,4.72-1.92,7.68-1.92,4.28,0,7.6,1.16,9.96,3.48,2.36,2.32,3.45,5.55,3.27,9.69h-25.57v-2.36l22.94.11c-.15-2.71-1.16-4.82-3.05-6.34-1.88-1.52-4.4-2.28-7.55-2.28-3.66,0-6.54,1.18-8.64,3.54-2.1,2.36-3.16,5.57-3.16,9.63,0,2.74.48,5.12,1.43,7.13.95,2.01,2.31,3.56,4.06,4.64s3.86,1.62,6.31,1.62c3,0,5.51-.71,7.52-2.14,2.01-1.43,3.26-3.37,3.73-5.82h2.52c-.62,3.18-2.16,5.69-4.61,7.52-2.45,1.83-5.51,2.74-9.16,2.74Z"/><path class="cls-1" d="M260.94,52.82v-29.85h2.14l.38,8.23v21.62h-2.52ZM281.41,33.67v-3.13c0-1.79-.6-3.23-1.78-4.31-1.19-1.08-2.85-1.62-4.97-1.62-2.89,0-5.39,1.15-7.49,3.46-2.1,2.3-3.56,5.58-4.36,9.82l-.71-4.01c.66-2.52,1.58-4.65,2.77-6.37,1.19-1.72,2.62-3.02,4.28-3.9,1.66-.88,3.5-1.32,5.52-1.32,2.82,0,5.07.75,6.75,2.25,1.68,1.5,2.52,3.49,2.52,5.98v3.13h-2.52Z"/><path class="cls-1" d="M320.08,21.87c2.71,0,5.08.69,7.11,2.06,2.03,1.37,3.63,3.25,4.8,5.62,1.17,2.38,1.76,5.09,1.76,8.12s-.59,5.7-1.76,8.09c-1.17,2.4-2.77,4.28-4.8,5.65-2.03,1.37-4.4,2.06-7.11,2.06-1.98,0-3.81-.41-5.49-1.23-1.68-.82-3.06-1.91-4.12-3.26l-.16,3.84h-6.2V12.37h6.48v13.77c1.1-1.32,2.47-2.36,4.12-3.13,1.65-.77,3.44-1.15,5.38-1.15ZM318.54,48.04c1.72,0,3.22-.46,4.5-1.37,1.28-.91,2.29-2.15,3.02-3.7.73-1.55,1.1-3.32,1.1-5.29s-.37-3.79-1.1-5.35c-.73-1.55-1.74-2.78-3.02-3.68-1.28-.9-2.78-1.34-4.5-1.34s-3.4.52-4.83,1.56c-1.43,1.04-2.47,2.48-3.13,4.31v8.94c.66,1.79,1.7,3.23,3.13,4.31s3.04,1.62,4.83,1.62Z"/><path class="cls-1" d="M353.5,53.48c-3.18,0-5.92-.64-8.2-1.92-2.29-1.28-4.04-3.1-5.27-5.46-1.23-2.36-1.84-5.17-1.84-8.42s.61-6.11,1.84-8.45c1.23-2.34,2.98-4.15,5.27-5.43,2.29-1.28,5.02-1.92,8.2-1.92,4.76,0,8.49,1.4,11.19,4.2,2.71,2.8,4.06,6.67,4.06,11.61,0,3.26-.61,6.06-1.84,8.42-1.23,2.36-2.98,4.18-5.27,5.46-2.29,1.28-5,1.92-8.15,1.92ZM353.5,48.1c2.67,0,4.78-.93,6.34-2.8,1.55-1.87,2.33-4.41,2.33-7.63s-.78-5.81-2.33-7.66c-1.56-1.85-3.67-2.77-6.34-2.77s-4.88.92-6.42,2.77c-1.54,1.85-2.3,4.4-2.3,7.66s.77,5.76,2.3,7.63c1.54,1.87,3.68,2.8,6.42,2.8Z"/><path class="cls-1" d="M376.87,52.82l-4.72-30.4h6.09l2.3,16.57.93,7.02,1.26-7.02,3.35-16.57h5.87l3.51,16.57,1.32,7.13.88-7.13,2.3-16.57h5.82l-4.67,30.4h-7.63l-3.51-15.86-.99-8.29-1.04,8.29-3.46,15.86h-7.63Z"/><path class="cls-1" d="M425.16,53.48c-2.71,0-5.09-.47-7.16-1.4-2.07-.93-3.67-2.26-4.8-3.98-1.13-1.72-1.72-3.75-1.76-6.09h6.15c-.04,2.05.63,3.66,2,4.83s3.23,1.76,5.57,1.76c1.87,0,3.37-.35,4.5-1.04,1.13-.69,1.7-1.65,1.7-2.85,0-.95-.35-1.72-1.04-2.3-.7-.58-1.62-1.04-2.77-1.37-1.15-.33-2.42-.63-3.79-.91-1.37-.27-2.75-.6-4.14-.99-1.39-.38-2.66-.9-3.81-1.54-1.15-.64-2.08-1.49-2.77-2.55-.7-1.06-1.04-2.42-1.04-4.06,0-1.79.5-3.38,1.51-4.75,1.01-1.37,2.44-2.44,4.31-3.21,1.87-.77,4.06-1.15,6.58-1.15,3.8,0,6.88.89,9.22,2.66,2.34,1.77,3.6,4.22,3.79,7.33h-6.09c-.11-1.65-.78-2.91-2-3.79-1.23-.88-2.86-1.32-4.91-1.32-1.87,0-3.3.37-4.31,1.1-1.01.73-1.51,1.67-1.51,2.8,0,.95.36,1.68,1.07,2.2.71.51,1.64.92,2.77,1.21,1.13.29,2.4.56,3.79.8,1.39.24,2.77.54,4.14.91,1.37.37,2.63.87,3.79,1.51,1.15.64,2.08,1.51,2.8,2.61.71,1.1,1.07,2.52,1.07,4.28,0,2.89-1.16,5.17-3.48,6.83s-5.44,2.5-9.36,2.5Z"/><path class="cls-1" d="M460.17,53.48c-3.18,0-5.93-.63-8.23-1.89-2.3-1.26-4.07-3.08-5.3-5.46-1.23-2.38-1.84-5.21-1.84-8.5s.62-6.12,1.87-8.48,3.04-4.16,5.38-5.41c2.34-1.24,5.14-1.87,8.4-1.87,5.05,0,8.77,1.41,11.17,4.23,2.4,2.82,3.43,6.68,3.1,11.58h-24.69l.05-4.77,17.94.05c-.15-1.76-.91-3.16-2.3-4.23-1.39-1.06-3.15-1.59-5.27-1.59-3,0-5.27.93-6.8,2.8-1.54,1.87-2.3,4.52-2.3,7.96,0,1.97.35,3.74,1.04,5.29.7,1.56,1.69,2.76,2.99,3.62,1.3.86,2.9,1.29,4.8,1.29,2.16,0,3.96-.51,5.41-1.54,1.44-1.02,2.33-2.4,2.66-4.12h6.58c-.44,3.4-1.97,6.09-4.58,8.07-2.62,1.98-5.97,2.96-10.07,2.96Z"/><path class="cls-1" d="M482.56,52.82v-30.29h6.2l.33,6.42v23.87h-6.53ZM502.98,36.25v-3.79c0-1.5-.45-2.72-1.34-3.65-.9-.93-2.19-1.4-3.87-1.4-2.05,0-3.92.75-5.6,2.25-1.68,1.5-3.09,3.86-4.23,7.08l-.82-6.15c.84-1.9,1.84-3.5,2.99-4.8,1.15-1.3,2.47-2.28,3.95-2.94,1.48-.66,3.1-.99,4.86-.99,3.11,0,5.65.92,7.63,2.74,1.98,1.83,2.96,4.45,2.96,7.85v3.79h-6.53Z"/><path class="cls-2" d="M7.63,51.9c0-9.78-7.63-10.72-7.63-10.72v-5.83s7.63-.94,7.63-10.81v-7.71C7.63,1.32,17.41,0,20.91,0h1.44v5.26h-.9c-2.15,0-8.17.85-8.17,11.75v9.21c0,9.21-7.18,11.94-7.18,11.94v.19s7.18,2.35,7.18,11.94v10.34c0,10.91,6.01,11.75,8.17,11.75h.9v5.27s-.54.09-1.44.09c-3.5,0-13.28-1.32-13.28-16.92v-8.93Z"/><path class="cls-2" d="M528.05,60.83c0,15.61-9.78,16.92-13.28,16.92-.9,0-1.44-.09-1.44-.09v-5.27h.9c2.15,0,8.17-.85,8.17-11.75v-10.34c0-9.59,7.18-11.94,7.18-11.94v-.19s-7.18-2.73-7.18-11.94v-9.21c0-10.91-6.01-11.75-8.17-11.75h-.9V0h1.44c3.5,0,13.28,1.32,13.28,16.83v7.71c0,9.87,7.63,10.81,7.63,10.81v5.83s-7.63.94-7.63,10.72v8.93Z"/></g></svg>