<?xml version="1.0" encoding="utf-8"?>
<!-- Generator: Adobe Adobe Illustrator 24.2.0, SVG Export Plug-In . SVG Version: 6.00 Build 0)  -->
<svg version="1.1" id="Layer_1" xmlns="http://www.w3.org/2000/svg" xmlns:xlink="http://www.w3.org/1999/xlink" x="0px" y="0px"
	 width="56.77px" height="62.43px" viewBox="0 0 56.77 62.43" style="enable-background:new 0 0 56.77 62.43;" xml:space="preserve"
	>
<style type="text/css">
	.st0{display:none;}
	.st1{display:none;fill:none;stroke:#A6A6A6;stroke-width:0.15;stroke-miterlimit:10;}
	.st2{fill:#F7AE5E;}
	.st3{fill:#FFFFFF;}
</style>
<rect class="st0" width="56.77" height="62.43"/>
<rect x="12.06" y="13.44" class="st1" width="33.36" height="33.36"/>
<g>
	<g>
		<path class="st3" d="M45.42,27.89v4.36c-1.18,0-1.48,0.04-1.89,0.49c-0.9,0.97,0.62,7.69-0.56,9.61
			c-0.85,1.38-2.39,2.89-4.87,2.89L20.36,45.2c-1.94,0-3.6-0.11-5.2-1.88c-2.17-2.39-0.16-9.09-0.9-10.67
			c-0.27-0.58-1.01-0.49-2.2-0.49v-4.23c0.81,0,1.82,0.27,2.4-0.68c0.71-1.15-1.14-8.2,0.84-10.21c0.95-0.96,2.34-1.96,4.87-1.96
			L36.7,15c1.59,0,4.2-0.04,5.73,1.91c2.06,2.63,0.17,9.34,0.89,10.35C43.95,28.13,44.3,27.98,45.42,27.89z"/>
	</g>
	<path d="M19.89,37.79v-0.85h2.51c0.88,0,1.55-0.23,2-0.7c0.45-0.47,0.68-1.14,0.68-2.02v-9.3h-4.65v-0.85h5.58v10.14
		c0,1.11-0.32,1.99-0.95,2.62c-0.63,0.63-1.52,0.95-2.66,0.95H19.89z M25.45,22.1c-0.32,0-0.58-0.09-0.78-0.28
		c-0.2-0.19-0.3-0.44-0.3-0.75c0-0.31,0.1-0.56,0.3-0.75c0.2-0.19,0.46-0.28,0.78-0.28s0.58,0.09,0.78,0.28
		c0.2,0.19,0.3,0.44,0.3,0.75c0,0.31-0.1,0.56-0.3,0.75C26.03,22.01,25.77,22.1,25.45,22.1z"/>
	<path d="M33.8,37.88c-0.84,0-1.52-0.23-2.03-0.69c-0.51-0.46-0.76-1.08-0.76-1.87l0.33,0.39h-0.33v1.97h-1.67V20.04h1.67v6.95
		l-0.04,2.35h0.37l-0.33,0.39c0-0.78,0.26-1.4,0.77-1.86c0.51-0.46,1.19-0.69,2.02-0.69c1.03,0,1.85,0.34,2.47,1.03
		c0.62,0.69,0.93,1.63,0.93,2.82v3.02c0,1.18-0.31,2.11-0.93,2.8C35.65,37.53,34.83,37.88,33.8,37.88z M33.24,36.41
		c0.71,0,1.26-0.21,1.67-0.64c0.41-0.43,0.61-1.04,0.61-1.84v-2.82c0-0.8-0.2-1.41-0.61-1.84c-0.41-0.43-0.97-0.64-1.67-0.64
		c-0.68,0-1.22,0.22-1.63,0.66c-0.4,0.44-0.6,1.05-0.6,1.82v2.82c0,0.78,0.2,1.38,0.6,1.82C32.02,36.2,32.56,36.41,33.24,36.41z"/>
	<g>
		<path class="st2" d="M44.69,31.3c-1.06,0-1.76,0.24-2.08,0.71c-0.32,0.47-0.46,1.24-0.41,2.3l0.25,4.94
			c0.05,1.04-0.11,1.94-0.47,2.69c-0.37,0.75-0.9,1.32-1.61,1.72c-0.71,0.39-1.55,0.59-2.53,0.59H36.7v-2.41h1.12
			c0.78,0,1.38-0.22,1.8-0.65c0.42-0.43,0.61-1.08,0.57-1.94l-0.25-4.94c-0.07-1.3,0.2-2.35,0.79-3.13
			c0.59-0.78,1.41-1.17,2.46-1.17v0.15c-1.06,0-1.89-0.39-2.47-1.16c-0.58-0.77-0.84-1.81-0.77-3.12l0.25-4.94
			c0.03-0.86-0.16-1.51-0.57-1.94c-0.42-0.43-1.01-0.65-1.8-0.65H36.7v-2.41h1.12c0.98,0,1.83,0.2,2.53,0.59
			c0.71,0.39,1.24,0.96,1.61,1.7c0.37,0.74,0.52,1.65,0.47,2.71l-0.25,4.94c-0.05,1.06,0.08,1.83,0.4,2.3
			c0.32,0.47,1.01,0.71,2.1,0.71"/>
	</g>
	<g>
		<path class="st2" d="M12.91,31.3c1.06,0,1.76,0.24,2.08,0.71c0.32,0.47,0.46,1.24,0.41,2.3l-0.25,4.94
			c-0.05,1.04,0.11,1.94,0.47,2.69c0.37,0.75,0.9,1.32,1.61,1.72c0.71,0.39,1.55,0.59,2.53,0.59h1.12v-2.41h-1.12
			c-0.78,0-1.38-0.22-1.8-0.65c-0.42-0.43-0.61-1.08-0.57-1.94l0.25-4.94c0.07-1.3-0.2-2.35-0.79-3.13
			c-0.59-0.78-1.41-1.17-2.46-1.17v0.15c1.06,0,1.89-0.39,2.47-1.16c0.58-0.77,0.84-1.81,0.77-3.12l-0.25-4.94
			c-0.03-0.86,0.16-1.51,0.57-1.94c0.42-0.43,1.01-0.65,1.8-0.65h1.12v-2.41h-1.12c-0.98,0-1.83,0.2-2.53,0.59
			c-0.71,0.39-1.24,0.96-1.61,1.7c-0.37,0.74-0.52,1.65-0.47,2.71l0.25,4.94c0.05,1.06-0.08,1.83-0.4,2.3
			c-0.32,0.47-1.01,0.71-2.1,0.71"/>
	</g>
</g>
</svg>
