<?xml version="1.0" encoding="utf-8"?>
<!-- Generator: Adobe Adobe Illustrator 24.2.0, SVG Export Plug-In . SVG Version: 6.00 Build 0)  -->
<svg version="1.1" xmlns="http://www.w3.org/2000/svg" xmlns:xlink="http://www.w3.org/1999/xlink" x="0px" y="0px" width="56.77px"
	 height="62.43px" viewBox="0 0 56.77 62.43" style="enable-background:new 0 0 56.77 62.43;" xml:space="preserve">
<style type="text/css">
	.st0{fill:#F7AE5E;}
	.st1{display:none;}
	.st2{display:none;fill:none;stroke:#A6A6A6;stroke-width:0.15;stroke-miterlimit:10;}
	.st3{fill:#FFFFFF;}
	.st4{fill:none;stroke:#A6A6A6;stroke-width:0.15;stroke-miterlimit:10;}
</style>
<g id="Full_Logo">
</g>
<g id="Layer_2">
	<rect id="Black_background" x="0" class="st1" width="56.77" height="62.43"/>
	<rect x="11.71" y="14.54" class="st2" width="33.36" height="33.36"/>
	<g>
		<g>
			<path class="st3" d="M45.06,28.74v4.83c-1.18,0-1.48,0.04-1.89,0.54c-0.9,1.08,0.62,8.52-0.56,10.64
				c-0.85,1.53-2.39,3.21-4.87,3.21L20,47.92c-1.94,0-3.6-0.12-5.2-2.08c-2.17-2.65-0.16-10.07-0.9-11.82
				c-0.27-0.64-1.01-0.54-2.2-0.54v-4.68c0.81,0,1.82,0.3,2.4-0.75c0.71-1.28-1.14-9.09,0.84-11.31c0.95-1.07,2.34-2.17,4.87-2.17
				l16.53-0.11c1.59,0,4.2-0.05,5.73,2.11c2.06,2.91,0.17,10.35,0.89,11.47C43.6,29.01,43.94,28.84,45.06,28.74z"/>
		</g>
		<g>
			<path class="st0" d="M44.33,32.52c-1.06,0-1.76,0.26-2.08,0.78c-0.32,0.52-0.46,1.37-0.41,2.55l0.25,5.47
				c0.05,1.16-0.11,2.15-0.47,2.99c-0.37,0.83-0.9,1.47-1.61,1.9c-0.71,0.43-1.55,0.65-2.53,0.65h-1.12v-2.67h1.12
				c0.78,0,1.38-0.24,1.8-0.72c0.42-0.48,0.61-1.2,0.57-2.15l-0.25-5.47c-0.07-1.45,0.2-2.6,0.79-3.47c0.59-0.87,1.41-1.3,2.46-1.3
				v0.17c-1.06,0-1.89-0.43-2.47-1.28c-0.58-0.86-0.84-2.01-0.77-3.45l0.25-5.47c0.03-0.96-0.16-1.67-0.57-2.15
				c-0.42-0.48-1.01-0.72-1.8-0.72h-1.12v-2.67h1.12c0.98,0,1.83,0.22,2.53,0.65c0.71,0.43,1.24,1.06,1.61,1.88
				c0.37,0.82,0.52,1.82,0.47,3l-0.25,5.47c-0.05,1.18,0.08,2.03,0.4,2.55c0.32,0.52,1.01,0.78,2.1,0.78"/>
		</g>
		<g>
			<path class="st0" d="M12.55,32.52c1.06,0,1.76,0.26,2.08,0.78c0.32,0.52,0.46,1.37,0.41,2.55l-0.25,5.47
				c-0.05,1.16,0.11,2.15,0.47,2.99c0.37,0.83,0.9,1.47,1.61,1.9c0.71,0.43,1.55,0.65,2.53,0.65h1.12v-2.67h-1.12
				c-0.78,0-1.38-0.24-1.8-0.72c-0.42-0.48-0.61-1.2-0.57-2.15l0.25-5.47c0.07-1.45-0.2-2.6-0.79-3.47c-0.59-0.87-1.41-1.3-2.46-1.3
				v0.17c1.06,0,1.89-0.43,2.47-1.28c0.58-0.86,0.84-2.01,0.77-3.45l-0.25-5.47c-0.03-0.96,0.16-1.67,0.57-2.15
				c0.42-0.48,1.01-0.72,1.8-0.72h1.12v-2.67h-1.12c-0.98,0-1.83,0.22-2.53,0.65c-0.71,0.43-1.24,1.06-1.61,1.88
				c-0.37,0.82-0.52,1.82-0.47,3l0.25,5.47c0.05,1.18-0.08,2.03-0.4,2.55c-0.32,0.52-1.01,0.78-2.1,0.78"/>
		</g>
	</g>
	<g>
		<path d="M18.4,40.14v-0.98h2.9c1.02,0,1.79-0.27,2.31-0.81c0.52-0.54,0.78-1.32,0.78-2.34V25.25h-5.38v-0.98h6.45v11.73
			c0,1.29-0.37,2.3-1.1,3.03c-0.73,0.73-1.76,1.1-3.08,1.1H18.4z M24.83,21.99c-0.37,0-0.67-0.11-0.9-0.33
			c-0.23-0.22-0.34-0.51-0.34-0.87c0-0.36,0.11-0.65,0.34-0.87c0.23-0.22,0.53-0.33,0.9-0.33s0.67,0.11,0.9,0.33
			c0.23,0.22,0.34,0.51,0.34,0.87c0,0.36-0.11,0.65-0.34,0.87C25.5,21.88,25.2,21.99,24.83,21.99z"/>
		<path d="M34.49,40.25c-0.98,0-1.76-0.26-2.35-0.79c-0.59-0.53-0.88-1.25-0.88-2.16l0.39,0.46h-0.39v2.28h-1.94V19.6h1.94v8.04
			l-0.04,2.72h0.43l-0.39,0.46c0-0.9,0.3-1.62,0.89-2.15c0.59-0.54,1.37-0.8,2.33-0.8c1.19,0,2.14,0.4,2.86,1.19
			c0.72,0.8,1.08,1.88,1.08,3.26v3.5c0,1.36-0.36,2.44-1.08,3.24C36.63,39.85,35.68,40.25,34.49,40.25z M33.84,38.55
			c0.82,0,1.46-0.25,1.94-0.74c0.47-0.49,0.71-1.2,0.71-2.13v-3.26c0-0.93-0.24-1.64-0.71-2.13c-0.47-0.49-1.12-0.74-1.94-0.74
			c-0.79,0-1.42,0.25-1.88,0.76c-0.47,0.51-0.7,1.21-0.7,2.11v3.26c0,0.9,0.23,1.6,0.7,2.11C32.43,38.3,33.05,38.55,33.84,38.55z"/>
	</g>
</g>
</svg>
