<?xml version="1.0" encoding="UTF-8"?><svg id="Layer_2" xmlns="http://www.w3.org/2000/svg" viewBox="0 0 120.08 105.36"><defs><style>.cls-1{fill:#000;}.cls-1,.cls-2,.cls-3{stroke-width:0px;}.cls-2{fill:#f2ae6b;}.cls-3{fill:#fff;}</style></defs><g id="Layer_1-2"><path class="cls-3" d="M91.8,104.46v-14.29h5.92c4.67,0,5.04-7.95,5.04-10.38v-12.88c0-7.52,2.96-12.24,5.91-15.07-2.93-2.88-5.91-7.61-5.91-14.91v-11.48c0-2.44-.36-10.38-5.04-10.38h-5.92V0H28.24v15.07h-5.92c-4.67,0-5.04,7.95-5.04,10.38v11.48c0,7.3-2.98,12.03-5.91,14.91,2.95,2.83,5.91,7.55,5.91,15.07v12.88c0,2.44.36,10.38,5.04,10.38h5.92v14.29l-3.87.69c-.26.05-1.24.2-2.7.2h76.71c-1.46,0-2.44-.15-2.7-.2l-3.87-.69Z"/><path class="cls-2" d="M21.99,94.16c-.58-.19-1.22-.5-1.85-1.02-.32-.26-.63-.57-.94-.93-.51-.61-1-1.39-1.43-2.38-.17-.4-.33-.82-.48-1.29-.23-.7-.42-1.48-.59-2.35-.33-1.74-.53-3.85-.53-6.4h0v-12.88c0-1.49-.1-2.85-.28-4.07-.18-1.22-.44-2.32-.75-3.29-.62-1.95-1.45-3.44-2.28-4.55-.41-.56-.83-1.02-1.22-1.4-1.16-1.14-2.1-1.56-2.1-1.56h0v-.23s6.63-3.4,6.63-14.87v-11.48c0-1.27.05-2.44.14-3.5.06-.71.14-1.37.23-1.99.05-.31.1-.61.15-.9.33-1.74.8-3.12,1.34-4.21.27-.54.56-1.02.86-1.42,1.7-2.32,3.76-2.61,4.82-2.61h.83v-6.56h-1.33c-1.21,0-3.24.23-5.3,1.54-.34.22-.69.47-1.03.75-.34.28-.68.6-1.01.95-.67.71-1.31,1.56-1.89,2.6-.15.26-.29.53-.43.81-1.53,3.11-2.6,7.67-2.6,14.31v9.6c0,2.31-.25,4.22-.65,5.81-.13.53-.29,1.02-.45,1.48-.17.46-.34.89-.53,1.28-.66,1.38-1.45,2.38-2.22,3.1-.22.21-.44.39-.65.55-.32.24-.63.44-.91.6-.38.21-.72.36-.98.46-.2.07-.36.12-.48.15s-.17.04-.17.04v7.26s.03,0,.08.02.13.03.22.06c.19.06.47.15.8.3.17.08.34.16.53.27.47.26,1.01.63,1.56,1.14.22.2.44.43.66.68.11.13.22.26.33.4.22.28.43.58.64.91.1.17.2.34.3.52.2.36.39.75.57,1.17.27.63.51,1.34.71,2.13.13.52.25,1.09.35,1.68.1.6.17,1.24.22,1.91s.08,1.4.08,2.16v11.13c0,1.82.08,3.49.23,5.01.1,1.02.23,1.97.38,2.86.08.45.16.88.25,1.29.27,1.25.59,2.37.96,3.37.37,1,.78,1.89,1.21,2.67.29.52.6,1,.92,1.43.63.87,1.31,1.57,1.99,2.14,1.2.99,2.42,1.56,3.53,1.89,1.11.33,2.09.4,2.8.4.83,0,1.33-.12,1.33-.12v-6.56h-.83c-.43,0-1.04-.05-1.72-.27Z"/><path class="cls-3" d="M28.23,104.46v-14.29h-4.52c-3.57,0-3.85-7.95-3.85-10.38v-12.88c0-7.52-2.26-12.24-4.51-15.07,2.24-2.88,4.51-7.61,4.51-14.91v-11.48c0-2.44.28-10.38,3.85-10.38h4.52V0h-5.02c-3.74,0-15.95,1.82-15.95,25.22v9.6c0,7.78-3.31,9.09-3.92,9.26l-3.34.32v15.12l3.34.24c.61.17,3.92,1.46,3.92,9.14v11.13c0,23.51,12.21,25.33,15.95,25.33,1.11,0,1.86-.15,2.06-.2l2.95-.69ZM24.54,94.43v6.56h0s-.5.12-1.33.12c-.71,0-1.69-.08-2.8-.4-1.11-.33-2.34-.9-3.53-1.89-.68-.57-1.36-1.27-1.99-2.14-.32-.43-.62-.91-.92-1.43-.44-.78-.85-1.67-1.21-2.67-.37-1-.69-2.12-.96-3.37-.09-.42-.17-.85-.25-1.29-.15-.89-.28-1.84-.38-2.86-.15-1.52-.23-3.19-.23-5.01v-11.13c0-.76-.03-1.48-.08-2.16s-.13-1.31-.22-1.91c-.1-.6-.21-1.16-.35-1.68-.2-.79-.44-1.49-.71-2.13-.18-.42-.37-.81-.57-1.17-.1-.18-.2-.35-.3-.52-.21-.33-.42-.63-.64-.91-.11-.14-.22-.27-.33-.4-.22-.25-.44-.48-.66-.68-.55-.51-1.09-.88-1.56-1.14-.19-.11-.37-.2-.53-.27-.33-.15-.61-.24-.8-.3-.1-.03-.17-.05-.22-.06s-.08-.02-.08-.02v-7.26h0s.06-.01.17-.04c.11-.03.27-.08.48-.15.27-.1.6-.24.98-.46.28-.16.59-.36.91-.6.21-.16.43-.34.65-.55.77-.72,1.56-1.72,2.22-3.1.19-.39.37-.82.53-1.28s.32-.95.45-1.48c.4-1.59.65-3.5.65-5.81v-9.6h0c0-6.64,1.07-11.19,2.6-14.31.14-.28.28-.55.43-.81.59-1.04,1.23-1.9,1.89-2.6.33-.35.67-.67,1.01-.95.34-.28.69-.53,1.03-.75,2.06-1.31,4.09-1.54,5.3-1.54h1.33v6.56h0s-.33,0-.83,0c-1.06,0-3.12.3-4.82,2.61-.3.41-.59.88-.86,1.42-.54,1.09-1.01,2.46-1.34,4.21-.05.29-.11.59-.15.9-.09.62-.17,1.29-.23,1.99-.09,1.06-.14,2.23-.14,3.5v11.48c0,11.48-6.63,14.87-6.63,14.87v.23s.93.41,2.1,1.56c.39.38.8.84,1.22,1.4.83,1.11,1.66,2.6,2.28,4.55.31.98.57,2.07.75,3.29.18,1.22.28,2.58.28,4.07h0v12.88c0,2.55.2,4.65.53,6.4.17.87.36,1.65.59,2.35.15.47.31.89.48,1.29.43.99.92,1.77,1.43,2.38.31.37.62.68.94.93.63.52,1.27.83,1.85,1.02.68.22,1.29.27,1.72.27h.83Z"/><path class="cls-2" d="M112.98,46.49c-.11-.1-.22-.21-.33-.33-.66-.69-1.32-1.59-1.89-2.77-.19-.39-.37-.82-.53-1.28-.41-1.15-.74-2.51-.93-4.12-.07-.64-.13-1.33-.15-2.05-.01-.36-.02-.74-.02-1.12h0v-9.6c0-3.62-.32-6.62-.85-9.11-.18-.83-.38-1.6-.61-2.32-.22-.72-.47-1.38-.73-2-.66-1.54-1.42-2.76-2.23-3.74-.33-.39-.66-.74-1-1.06-.34-.32-.68-.6-1.02-.85-2.23-1.62-4.5-1.89-5.81-1.89h-1.33v6.56h.83c.62,0,1.59.1,2.63.66.31.17.63.37.95.63.21.17.42.37.63.59.1.11.21.23.31.35.2.25.41.52.6.82.39.6.75,1.32,1.08,2.18.08.21.16.44.23.67.23.7.42,1.48.59,2.35.16.87.3,1.83.39,2.9.09,1.06.14,2.23.14,3.5h0v11.48c0,2.87.41,5.23,1.04,7.17.31.97.67,1.82,1.06,2.58s.8,1.42,1.22,1.99c1.66,2.28,3.31,3.13,3.31,3.13h0v.23s-.65.29-1.54,1.04c-.36.3-.75.68-1.16,1.15-.41.47-.83,1.02-1.24,1.67-.2.33-.4.68-.6,1.05-.58,1.13-1.11,2.5-1.49,4.15s-.61,3.57-.61,5.81v12.88h0c0,2.12-.14,3.94-.37,5.49-.33,2.18-.86,3.84-1.49,5.11-.18.36-.37.69-.56.99s-.4.57-.6.82c-.82.98-1.7,1.54-2.5,1.85-.2.08-.39.14-.58.19-.56.15-1.06.19-1.43.19h-.83v6.56s.28.07.77.1c.16.01.35.02.56.02,1.21,0,3.24-.23,5.3-1.54.34-.22.69-.47,1.03-.75.68-.57,1.36-1.27,1.99-2.14.32-.43.62-.91.92-1.43s.57-1.09.83-1.71c.13-.31.26-.63.38-.97,1.1-3.01,1.81-7.07,1.81-12.54v-11.13h0c0-.38,0-.75.02-1.11.05-1.44.21-2.71.44-3.83.23-1.12.54-2.1.9-2.94.18-.42.37-.81.57-1.17.1-.18.2-.35.3-.52.21-.33.42-.63.64-.91.32-.42.66-.77.99-1.08.22-.2.44-.38.65-.55,1.38-1.05,2.54-1.24,2.54-1.24v-7.26s-.83-.14-1.92-.82c-.4-.25-.83-.57-1.27-.98Z"/><path class="cls-3" d="M112.82,34.82v-9.6C112.82,1.82,100.61,0,96.87,0h-5.02v15.07h4.52c3.57,0,3.85,7.95,3.85,10.38v11.48c0,7.3,2.27,12.03,4.51,14.91-2.26,2.83-4.51,7.55-4.51,15.07v12.88c0,2.44-.28,10.38-3.85,10.38h-4.52v14.29l2.95.69c.2.05.95.2,2.06.2,3.74,0,15.95-1.83,15.95-25.33v-11.13c0-7.68,3.32-8.97,3.92-9.14l3.34-.32v-15.08l-3.34-.27c-.61-.17-3.92-1.48-3.92-9.26ZM116.17,48.29v7.26h0s-1.16.19-2.54,1.24c-.21.16-.43.34-.65.55-.33.31-.66.66-.99,1.08-.22.28-.43.58-.64.91-.1.17-.2.34-.3.52-.2.36-.39.75-.57,1.17-.36.85-.66,1.82-.9,2.94-.23,1.12-.39,2.39-.44,3.83-.01.36-.02.73-.02,1.11v11.13h0c0,5.47-.71,9.53-1.81,12.54-.12.33-.25.66-.38.97-.26.62-.54,1.19-.83,1.71s-.6,1-.92,1.43c-.63.87-1.31,1.57-1.99,2.14-.34.28-.69.53-1.03.75-2.06,1.31-4.09,1.54-5.3,1.54-.21,0-.39,0-.56-.02-.49-.03-.77-.1-.77-.1h0v-6.56h.83c.37,0,.87-.04,1.43-.19.19-.05.38-.11.58-.19.8-.31,1.68-.87,2.5-1.85.2-.25.41-.52.6-.82.19-.3.38-.63.56-.99.63-1.27,1.16-2.93,1.49-5.11.24-1.55.37-3.37.37-5.49v-12.88c0-2.24.23-4.16.61-5.81.38-1.65.9-3.01,1.49-4.15.19-.38.39-.73.6-1.05.41-.65.83-1.21,1.24-1.67.41-.47.8-.84,1.16-1.15.89-.76,1.54-1.04,1.54-1.04v-.23s-1.66-.85-3.31-3.13c-.41-.57-.83-1.23-1.22-1.99s-.75-1.62-1.06-2.58c-.62-1.93-1.04-4.3-1.04-7.17v-11.48c0-1.27-.05-2.44-.14-3.5-.09-1.06-.22-2.02-.39-2.9-.17-.87-.36-1.65-.59-2.35-.08-.23-.15-.46-.23-.67-.32-.86-.69-1.58-1.08-2.18-.19-.3-.4-.57-.6-.82-.1-.12-.21-.24-.31-.35-.21-.22-.42-.41-.63-.59-.32-.26-.63-.47-.95-.63-1.04-.56-2.01-.66-2.63-.66h-.83v-6.56h1.33c1.31,0,3.58.27,5.81,1.89.34.25.69.53,1.02.85.34.32.67.67,1,1.06.81.98,1.58,2.21,2.23,3.74.26.61.51,1.28.73,2,.22.72.43,1.49.61,2.32.54,2.49.85,5.49.85,9.11h0v9.6c0,.38,0,.76.02,1.12.03.73.08,1.41.15,2.05.19,1.61.51,2.97.93,4.12.17.46.34.89.53,1.28.57,1.18,1.23,2.09,1.89,2.77.11.11.22.22.33.33.44.41.87.73,1.27.98,1.09.68,1.92.82,1.92.82h0Z"/><path class="cls-1" d="M45,32.69v39.2c0,1.98-.24,3.69-.72,5.14-.48,1.44-1.26,2.54-2.36,3.31s-2.59,1.15-4.45,1.15h-7.93v-2.57h7.98c1.54,0,2.75-.48,3.63-1.45.88-.97,1.32-2.69,1.32-5.17v-39.6h2.53ZM33.67,34.77v-2.08h11.33v2.08h-11.33ZM42.09,23.81v-3.94h3.3v3.94h-3.3Z"/><path class="cls-1" d="M73.83,41.46c3.3,0,6.19.81,8.67,2.43,2.48,1.62,4.43,3.87,5.86,6.76,1.43,2.88,2.14,6.19,2.14,9.92s-.71,6.97-2.14,9.85c-1.43,2.88-3.38,5.15-5.86,6.79-2.48,1.64-5.37,2.46-8.67,2.46-2.54,0-4.88-.54-7-1.63-2.12-1.09-3.83-2.52-5.12-4.29l-.2,5.12h-6.43V19.98h6.76v27.13c1.29-1.77,2.99-3.16,5.09-4.16,2.1-1,4.4-1.5,6.9-1.5ZM72.36,74c2.28,0,4.26-.58,5.96-1.73,1.7-1.15,3.01-2.74,3.95-4.76.94-2.02,1.41-4.34,1.41-6.95s-.47-5-1.41-7.02c-.94-2.02-2.25-3.59-3.95-4.73-1.7-1.13-3.68-1.7-5.96-1.7s-4.49.65-6.36,1.96c-1.87,1.31-3.26,3.14-4.15,5.49v11.91c.89,2.31,2.28,4.14,4.15,5.49,1.87,1.35,3.99,2.03,6.36,2.03Z"/></g></svg>